<?xml version="1.0" encoding="UTF-8"?>
<svg width="467px" height="420px" viewBox="0 0 467 420" version="1.1" xmlns="http://www.w3.org/2000/svg" xmlns:xlink="http://www.w3.org/1999/xlink">
    <title>p 2</title>
    <defs>
        <filter x="0.0%" y="0.0%" width="101.6%" height="100.0%" filterUnits="objectBoundingBox" id="filter-1">
            <feGaussianBlur stdDeviation="0" in="SourceGraphic"></feGaussianBlur>
        </filter>
        <filter x="0.0%" y="0.0%" width="101.6%" height="100.0%" filterUnits="objectBoundingBox" id="filter-2">
            <feGaussianBlur stdDeviation="0" in="SourceGraphic"></feGaussianBlur>
        </filter>
    </defs>
    <g id="页面-1" stroke="none" stroke-width="1" fill="none" fill-rule="evenodd">
        <g id="p" transform="translate(0.077239, 22.000000)" fill="#E02F2F" fill-rule="nonzero">
            <g id="g49" transform="translate(0.000000, 18.210806)">
                <g id="g25">
                    <path d="M37.6119859,225.6 L38.8119859,226.6 C37.5119859,217.6 36.8119859,207.8 39.4119859,199.2 C43.3119859,185.4 48.2119859,172 50.7119859,157.7 C52.7119859,146.6 55.0119859,134.1 53.7119859,123.4 C52.2119859,129.2 50.7119859,134.9 47.5119859,139.9 C35.4119859,158.6 23.0119859,180.6 31.5119859,204.4 C31.3119859,204.7 31.0119859,205 30.7119859,204.8 C27.3119859,196.9 26.5119859,188 24.3119859,179.6 C18.4119859,157.3 1.31198592,138.6 6.31198592,112.8 C3.61198592,118.4 2.61198592,124.7 1.21198592,130.8 C-1.78801408,146.6 1.21198592,163.3 5.51198592,177.9 C10.8119859,196 28.5119859,209 37.6119859,225.6 Z" id="path9"></path>
                    <path d="M33.0119859,109.8 C37.0119859,101.6 43.5119859,93.8 51.3119859,88 C68.5119859,75 87.3119859,58.2 87.6119859,36.2 C81.8119859,52 64.5119859,58.6 53.0119859,69.4 C46.9119859,75.1 42.2119859,82 39.5119859,89.2 L39.1119859,88.9 C40.5119859,82.5 43.2119859,76.8 45.1119859,70.6 C50.1119859,53.8 49.2119859,33.7 65.6119859,22.4 C57.2119859,24.6 50.1119859,30 43.8119859,37 L43.8119859,37 C30.5119859,51.7 31.7119859,73.4 33.4119859,92.6 C34.0119859,98.6 33.7119859,103.7 33.0119859,109.8 Z" id="path11"></path>
                    <path d="M53.0119859,61.9 C62.2119859,53.3 72.8119859,46.9 80.6119859,36.7 C89.9119859,24.4 98.0119859,10.6 110.211986,-1.42108547e-14 C93.7119859,6.4 75.9119859,13 65.2119859,30 C58.9119859,39.9 57.9119859,51.6 53.0119859,61.9 Z" id="path13"></path>
                    <path d="M59.9119859,105.4 C63.9119859,97.3 66.4119859,88.1 67.5119859,79.2 C66.0119859,83 63.7119859,86.5 60.5119859,89.5 C47.1119859,102.2 31.4119859,114.6 28.4119859,132.6 C28.0119859,135.2 27.7119859,137.8 27.0119859,140.3 C26.4119859,140.6 26.4119859,139.9 26.2119859,139.7 L27.9119859,117.5 C29.5119859,95.8 18.1119859,71.7 30.6119859,52.6 C30.2119859,52.5 29.9119859,52.9 29.6119859,53 C18.2119859,67.5 10.6119859,83.5 10.6119859,103 C10.6119859,127.1 24.5119859,144 26.2119859,166.6 C29.8119859,143 49.6119859,126.2 59.9119859,105.4 Z" id="path15"></path>
                    <path d="M33.4119859,253.5 C46.3119859,263.7 61.7119859,271.6 73.5119859,280.6 C71.2119859,274.7 67.4119859,269.3 65.9119859,263.2 C59.0119859,235.3 62.8119859,202.9 50.9119859,177.1 C53.1119859,191.8 47.3119859,204.8 46.0119859,218.8 C44.9119859,230.3 46.9119859,241.5 51.4119859,251.1 C52.7119859,254 55.1119859,256.5 55.8119859,259.5 C51.5119859,255.6 48.4119859,250.7 45.5119859,245.9 C31.6119859,223.4 2.51198592,208.8 0.511985918,181.4 L0.511985918,181.4 C-0.488014082,193.6 0.611985918,206.5 4.61198592,217.3 C10.1119859,232.1 20.9119859,243.6 33.4119859,253.5 Z" id="path17"></path>
                    <path d="M208.811986,327.4 C186.311986,327.4 166.111986,338.3 146.411986,346.5 C128.511986,353.9 104.811986,352.5 88.9119859,341.5 C96.7119859,351.3 107.211986,357.4 118.111986,361.5 C138.211986,369.5 161.711986,363.4 178.911986,352.4 C191.211986,344.5 201.811986,333.3 216.511986,333.3 C240.211986,333.3 265.111986,357.6 286.411986,379.6 C289.711986,376.9 293.211986,374.1 295.911986,371 C273.611986,349.8 242.111986,327.4 208.811986,327.4 Z" id="path19"></path>
                    <path d="M168.611986,329.8 C172.111986,328.9 176.311986,329.2 179.511986,328 C166.111986,325.3 153.211986,321.2 142.811986,311.7 C127.911986,298.1 114.711986,283.6 98.8119859,273 C111.311986,289.8 114.811986,314.2 137.611986,322.7 C141.611986,324.2 146.311986,324.5 149.811986,326.7 C145.411986,327.4 141.611986,326 137.511986,325.1 C108.111986,318.8 72.3119859,326.9 50.3119859,301.9 C58.6119859,318.3 75.8119859,331.2 92.4119859,336.6 C117.911986,345.2 144.611986,335.7 168.611986,329.8 Z" id="path21"></path>
                    <path d="M119.411986,317.5 C100.311986,302.1 97.4119859,279 88.9119859,258.8 C83.6119859,246.2 75.0119859,234.9 65.8119859,223.9 C75.9119859,244.1 71.5119859,270.1 84.6119859,289.1 C88.7119859,295.1 94.4119859,300.8 99.7119859,305.5 L99.5119859,305.8 C94.7119859,303.6 90.4119859,300.2 86.0119859,296.6 C63.1119859,277.5 28.6119859,275.1 14.9119859,244 L14.9119859,244 C18.6119859,266.8 36.7119859,287 56.3119859,299.8 C74.9119859,312 98.8119859,310.7 119.411986,317.5 Z" id="path23"></path>
                </g>
                <g id="g47" transform="translate(170.311986, 0.000000)">
                    <path d="M215.2,36.7 C223,47 233.6,53.3 242.8,61.9 C237.9,51.6 236.9,39.9 230.7,30 C220,13 202.2,6.4 185.7,-7.10542736e-15 C197.7,10.6 205.8,24.3 215.2,36.7 Z" id="path27"></path>
                    <path d="M250.7,70.6 C252.5,76.7 255.2,82.5 256.7,88.9 L256.3,89.2 C253.6,82 248.9,75.1 242.8,69.4 C231.3,58.5 214,52 208.3,36.1 C208.6,58.2 227.4,75 244.6,87.9 C252.3,93.7 258.9,101.5 262.9,109.7 C262.2,103.6 261.9,98.5 262.5,92.6 C264.3,73.3 265.4,51.7 252.2,37 L252.2,37 C245.9,30 238.8,24.5 230.4,22.4 C246.6,33.7 245.7,53.8 250.7,70.6 Z" id="path29"></path>
                    <path d="M267.9,117.4 L269.6,139.6 C269.4,139.8 269.4,140.4 268.8,140.2 C268.1,137.7 267.8,135.1 267.4,132.5 C264.4,114.6 248.6,102.1 235.3,89.4 C232.1,86.4 229.8,82.9 228.3,79.1 C229.4,88 231.9,97.2 235.9,105.3 C246.2,126.1 266,142.9 269.6,166.6 C271.3,143.9 285.2,127.1 285.2,103 C285.2,83.5 277.6,67.5 266.2,53 C265.9,52.8 265.6,52.5 265.2,52.6 C277.7,71.7 266.2,95.8 267.9,117.4 Z" id="path31"></path>
                    <path d="M271.5,179.5 C269.3,187.9 268.5,196.9 265.1,204.7 C264.8,204.9 264.5,204.5 264.3,204.3 C272.8,180.5 260.4,158.6 248.3,139.8 C245.1,134.9 243.6,129.1 242.1,123.3 C240.8,134.1 243.1,146.5 245.1,157.6 C247.7,171.9 252.5,185.3 256.4,199.1 C259,207.7 258.3,217.4 257,226.5 L258.2,225.5 C267.2,208.9 285,195.9 290.4,177.7 C294.7,163.2 297.7,146.4 294.7,130.6 L294.7,130.6 C293.3,124.5 292.2,118.2 289.6,112.6 C294.5,138.5 277.4,157.2 271.5,179.5 Z" id="path33"></path>
                    <path d="M149.3,346.5 C129.5,338.3 109.4,327.4 86.9,327.4 C53.7,327.4 22.1,349.9 -2.84217094e-14,371 C2.7,374.1 6.2,377 9.5,379.6 C30.7,357.7 55.7,333.3 79.4,333.3 C94.1,333.3 104.7,344.5 117,352.4 C134.1,363.3 157.6,369.5 177.8,361.5 C188.6,357.4 199.1,351.3 207,341.5 C191,352.4 167.2,353.9 149.3,346.5 Z" id="path35"></path>
                    <path d="M250.4,245.7 C247.4,250.5 244.4,255.5 240.1,259.3 C240.8,256.4 243.2,253.8 244.5,250.9 C249,241.2 251,230.1 249.9,218.6 C248.5,204.6 242.7,191.6 245,176.9 C233,202.7 236.9,235.1 230,263 C228.5,269.2 224.7,274.6 222.4,280.4 C234.2,271.4 249.6,263.5 262.5,253.3 C275,243.5 285.8,231.9 291.5,216.9 C295.6,206.1 296.6,193.2 295.6,181 C293.5,208.6 264.3,223.2 250.4,245.7 Z" id="path39"></path>
                    <path d="M209.6,296.6 C205.2,300.2 200.9,303.6 196.1,305.8 L195.9,305.5 C201.2,300.7 206.9,295 211,289.1 C224.1,270.1 219.7,244 229.8,223.9 C220.6,234.9 212,246.2 206.7,258.8 C198.2,279 195.3,302.1 176.2,317.5 C196.8,310.7 220.7,312 239.2,299.9 C258.7,287.1 276.8,266.9 280.6,244.1 C267,275.1 232.6,277.5 209.6,296.6 Z" id="path41"></path>
                    <path d="M158.3,325.2 C154.2,326.1 150.4,327.4 146,326.8 C149.5,324.6 154.1,324.3 158.2,322.8 C181,314.2 184.5,289.8 197,273.1 C181.1,283.7 167.9,298.2 153,311.8 C142.6,321.3 129.7,325.3 116.3,328.1 C119.5,329.3 123.7,329 127.2,329.9 C151.3,335.9 177.9,345.3 203.5,336.8 C220,331.3 237.2,318.4 245.6,302.1 C223.5,327 187.6,319 158.3,325.2 Z" id="path45"></path>
                </g>
            </g>
            <text id="P" filter="url(#filter-2)" font-family="JCfg, PilGi" font-size="370" font-weight="normal">
                <tspan x="139" y="296">P</tspan>
            </text>
        </g>
    </g>
</svg>